<?xml version="1.0" encoding="UTF-8" standalone="no"?>
<!-- Created with Inkscape (http://www.inkscape.org/) -->

<svg
   width="210mm"
   height="297mm"
   viewBox="0 0 210 297"
   version="1.1"
   id="svg5"
   inkscape:version="1.1.1 (3bf5ae0d25, 2021-09-20)"
   sodipodi:docname="default_avatar.svg"
   inkscape:export-filename="C:\Users\hes\dev\Darkenwald\src\main\resources\assets\avatars\default_avatar.png"
   inkscape:export-xdpi="96"
   inkscape:export-ydpi="96"
   xmlns:inkscape="http://www.inkscape.org/namespaces/inkscape"
   xmlns:sodipodi="http://sodipodi.sourceforge.net/DTD/sodipodi-0.dtd"
   xmlns="http://www.w3.org/2000/svg"
   xmlns:svg="http://www.w3.org/2000/svg">
  <sodipodi:namedview
     id="namedview7"
     pagecolor="#ffffff"
     bordercolor="#999999"
     borderopacity="1"
     inkscape:pageshadow="0"
     inkscape:pageopacity="0"
     inkscape:pagecheckerboard="0"
     inkscape:document-units="mm"
     showgrid="false"
     inkscape:zoom="12.443434"
     inkscape:cx="54.205293"
     inkscape:cy="26.881646"
     inkscape:window-width="1284"
     inkscape:window-height="1081"
     inkscape:window-x="2180"
     inkscape:window-y="260"
     inkscape:window-maximized="0"
     inkscape:current-layer="layer1"
     showguides="true"
     inkscape:guide-bbox="true">
    <sodipodi:guide
       position="13.229167,296.97875"
       orientation="1,0"
       id="guide776" />
    <sodipodi:guide
       position="6.6145834,298.63724"
       orientation="-1,0"
       id="guide778"
       inkscape:label=""
       inkscape:locked="false"
       inkscape:color="rgb(0,0,255)" />
    <sodipodi:guide
       position="0,296.97876"
       orientation="1,0"
       id="guide780" />
    <sodipodi:guide
       position="0,296.97876"
       orientation="0,-1"
       id="guide782" />
    <sodipodi:guide
       position="0,290.21715"
       orientation="0,-1"
       id="guide784" />
    <sodipodi:guide
       position="-1.0206186,291.93943"
       orientation="0,-1"
       id="guide786" />
  </sodipodi:namedview>
  <defs
     id="defs2" />
  <g
     inkscape:label="Layer 1"
     inkscape:groupmode="layer"
     id="layer1">
    <rect
       style="fill:#0000ff;fill-rule:evenodd;stroke-width:0.264583"
       id="rect35"
       width="13.229167"
       height="13.229167"
       x="0"
       y="0" />
    <circle
       style="fill:#ffff00;stroke-width:0.285145"
       id="path125"
       cx="6.614583"
       cy="6.614583"
       r="5.2916665" />
    <path
       id="path251"
       style="fill:#0000ff;stroke-width:0.237611"
       d="M 3.3239604,7.6110041 A 3.829813,4.9767469 0 0 0 6.648058,10.117522 3.829813,4.9767469 0 0 0 9.9385469,7.6834741 4.5922295,4.8327915 0 0 1 6.6730513,9.1304101 4.5922295,4.8327915 0 0 1 3.3239604,7.6110041 Z" />
    <path
       style="fill:#0000ff"
       id="path650"
       sodipodi:type="arc"
       sodipodi:cx="4.3656249"
       sodipodi:cy="4.9565654"
       sodipodi:rx="0.66145831"
       sodipodi:ry="0.66145831"
       sodipodi:start="0"
       sodipodi:end="6.2770243"
       sodipodi:arc-type="slice"
       d="M 5.0270832,4.9565654 A 0.66145831,0.66145831 0 0 1 4.3666437,5.6180229 0.66145831,0.66145831 0 0 1 3.7041697,4.958603 0.66145831,0.66145831 0 0 1 4.3625685,4.2951141 0.66145831,0.66145831 0 0 1 5.0270707,4.9524902 l -0.6614458,0.00408 z" />
    <path
       style="fill:#0000ff"
       id="path650-0"
       sodipodi:type="arc"
       sodipodi:cx="8.8635426"
       sodipodi:cy="4.9565654"
       sodipodi:rx="0.66145831"
       sodipodi:ry="0.66145831"
       sodipodi:start="0"
       sodipodi:end="6.2770243"
       sodipodi:arc-type="slice"
       d="M 9.5250009,4.9565654 A 0.66145831,0.66145831 0 0 1 8.8645614,5.6180229 0.66145831,0.66145831 0 0 1 8.2020874,4.958603 0.66145831,0.66145831 0 0 1 8.8604861,4.2951141 0.66145831,0.66145831 0 0 1 9.5249883,4.9524902 l -0.6614457,0.00408 z" />
  </g>
</svg>
